<?xml version="1.0" standalone="no"?>
<!DOCTYPE svg PUBLIC "-//W3C//DTD SVG 20010904//EN"
 "http://www.w3.org/TR/2001/REC-SVG-20010904/DTD/svg10.dtd">
<svg version="1.0" xmlns="http://www.w3.org/2000/svg"
 width="8000.000000pt" height="4500.000000pt" viewBox="0 0 8000.000000 4500.000000"
 preserveAspectRatio="xMidYMid meet">
<metadata>
Created by potrace 1.15, written by Peter Selinger 2001-2017
</metadata>
<g transform="translate(0.000000,4500.000000) scale(0.100000,-0.100000)"
fill="#ffffff" stroke="none">
<path d="M10307 37873 c-98 -33 -177 -133 -226 -283 -11 -36 -41 -150 -66
-255 -108 -451 -224 -757 -403 -1065 -101 -175 -220 -325 -436 -550 -223 -231
-323 -347 -394 -452 -144 -214 -240 -466 -299 -783 -16 -87 -18 -156 -19 -525
0 -410 -1 -428 -23 -500 -48 -161 -137 -301 -340 -535 -173 -199 -230 -294
-266 -442 -22 -89 -17 -262 9 -338 9 -27 138 -295 286 -595 170 -342 276 -569
287 -610 25 -100 15 -140 -68 -265 -127 -193 -198 -363 -245 -589 -19 -94 -26
-164 -31 -311 -6 -210 3 -327 43 -521 52 -256 122 -429 243 -598 98 -137 113
-181 119 -337 4 -105 1 -139 -17 -209 -19 -76 -37 -124 -146 -384 -105 -251
-111 -432 -19 -624 55 -114 152 -206 314 -296 188 -105 281 -206 354 -390 15
-37 26 -69 24 -71 -2 -2 -118 45 -258 104 -1817 766 -3127 1475 -3614 1956
-101 99 -158 173 -162 208 -1 12 -5 31 -9 43 -5 15 0 23 19 32 32 15 35 36 4
26 -13 -4 -28 -9 -34 -11 -18 -7 -56 51 -42 65 15 15 2 42 -21 42 -24 0 -18
-9 -295 510 -113 212 -225 413 -249 447 -223 307 -661 238 -949 -151 -75 -101
-154 -262 -172 -351 -56 -273 -41 -582 40 -807 86 -239 260 -469 478 -632 43
-33 167 -113 274 -178 309 -188 460 -296 1023 -729 510 -393 720 -536 1098
-753 292 -168 501 -314 781 -546 439 -364 990 -918 1416 -1425 844 -1004 1489
-2069 1867 -3086 337 -903 441 -1729 312 -2479 -56 -328 -185 -698 -339 -970
-183 -322 -383 -575 -847 -1070 -214 -229 -317 -343 -420 -465 -477 -567 -718
-1106 -799 -1790 -18 -149 -24 -525 -11 -690 24 -302 71 -563 147 -818 108
-362 226 -597 476 -948 162 -227 210 -326 244 -505 42 -223 17 -353 -152 -811
-250 -678 -399 -1153 -549 -1752 -114 -459 -157 -668 -152 -741 18 -265 320
-402 533 -241 82 61 107 116 144 309 149 789 330 1459 601 2231 194 552 223
769 149 1132 -55 270 -135 427 -408 796 -164 224 -258 406 -347 678 -91 276
-136 518 -157 848 -35 545 80 1064 331 1502 153 267 309 464 731 930 567 625
802 949 996 1374 564 1237 408 2775 -454 4471 -51 102 -89 181 -84 175 18 -18
198 -339 310 -551 437 -831 690 -1592 768 -2307 20 -181 23 -601 6 -752 -76
-645 -292 -1210 -710 -1855 -128 -197 -267 -392 -533 -747 -381 -507 -528
-724 -655 -968 -146 -279 -214 -526 -214 -776 0 -202 52 -410 146 -589 126
-237 197 -275 110 -58 -74 186 -97 289 -103 468 -6 180 12 295 74 460 101 274
273 529 703 1045 449 539 588 715 752 955 647 946 859 1899 672 3025 -54 328
-188 792 -338 1167 -432 1088 -1216 2282 -2375 3618 -312 359 -727 810 -747
810 -30 0 -12 -45 43 -108 32 -37 -53 41 -187 173 -424 415 -761 701 -1122
953 -147 103 -251 166 -518 316 -289 163 -410 249 -1290 916 -260 198 -504
364 -745 510 -93 56 -206 131 -251 166 -235 183 -366 427 -380 709 -5 92 -4
98 9 69 30 -64 144 -126 195 -106 10 4 48 40 82 81 62 72 63 74 51 105 -33 78
-16 145 50 200 19 16 29 32 25 41 -16 44 -148 45 -231 2 -57 -29 -87 -58 -139
-137 -40 -60 -43 -54 -25 45 36 195 252 435 391 435 57 0 77 -25 208 -272 62
-117 183 -341 267 -497 153 -281 188 -366 157 -378 -27 -10 -14 -26 16 -20 26
6 32 2 45 -22 48 -94 222 -278 399 -423 631 -517 1977 -1222 3711 -1945 224
-93 309 -133 338 -160 51 -45 94 -63 157 -63 41 0 85 -15 247 -86 610 -267
1138 -541 1638 -852 207 -129 525 -344 526 -356 0 -6 52 -51 116 -101 529
-411 1111 -1011 1541 -1590 690 -929 1134 -1930 1307 -2950 64 -379 86 -639
86 -1045 1 -376 -18 -642 -72 -1000 -112 -745 -405 -1572 -797 -2250 -563
-974 -1323 -1742 -2349 -2374 -78 -48 -144 -94 -147 -102 -17 -44 59 -19 338
108 708 321 1388 836 1913 1448 641 745 1063 1618 1258 2604 75 383 108 682
132 1221 l7 160 9 -195 c8 -199 -3 -617 -23 -840 -37 -402 -109 -803 -211
-1175 -172 -628 -481 -1309 -844 -1860 -226 -344 -433 -602 -715 -889 -360
-367 -725 -653 -1140 -891 -73 -42 -339 -179 -589 -305 -251 -125 -501 -254
-556 -285 -577 -332 -974 -754 -1260 -1340 -295 -604 -433 -1384 -396 -2241
14 -331 36 -583 57 -647 25 -76 83 -140 161 -179 60 -29 75 -32 138 -30 38 2
13948 5 30910 7 26518 3 30836 2 30810 -10 -16 -8 -102 -47 -190 -86 -1034
-462 -1978 -1139 -2741 -1968 l-124 -135 31 -32 32 -33 121 111 c992 904 2191
1550 3496 1882 625 159 1191 240 1880 267 157 7 286 13 288 14 2 2 -2 106 -8
231 -7 126 -10 273 -8 327 l3 97 -32097 0 -32097 0 -6 43 c-12 91 -25 381 -25
562 0 950 257 1709 757 2235 166 175 385 341 643 488 58 33 249 134 426 225
487 251 695 371 954 552 493 346 960 800 1362 1325 l96 126 128 12 c263 25
617 88 916 163 1244 311 2455 1010 3510 2026 499 480 831 862 1258 1443 189
257 286 375 406 490 140 134 247 203 576 371 279 142 446 243 574 345 214 173
384 364 498 560 84 145 118 245 170 504 14 69 33 143 42 165 43 105 169 253
274 325 30 20 137 78 237 129 100 50 217 118 260 150 190 141 346 370 423 621
16 52 45 147 64 211 57 186 207 474 346 664 69 94 134 232 157 330 13 58 18
119 18 220 -1 172 -18 245 -106 443 -79 178 -103 270 -97 376 4 74 10 91 58
186 134 266 211 566 255 993 21 205 30 251 61 304 54 93 159 141 368 169 154
20 218 44 278 103 115 114 97 296 -44 443 -99 102 -290 230 -548 366 -350 185
-1021 452 -1285 512 -120 27 -302 36 -402 20 -109 -17 -231 -64 -319 -121 -42
-27 -128 -100 -192 -163 -128 -123 -172 -153 -283 -193 -69 -24 -84 -26 -209
-22 -378 9 -484 -9 -735 -131 -269 -130 -491 -341 -564 -534 -64 -173 -48
-315 55 -468 30 -45 52 -88 50 -95 -18 -46 -189 -112 -315 -120 -144 -9 -237
20 -460 145 -176 99 -244 124 -342 124 -145 1 -257 -77 -299 -207 -42 -132
-120 -219 -279 -312 -53 -31 -130 -80 -173 -109 l-76 -53 -7 77 c-13 150 31
426 89 556 14 32 75 138 135 235 303 493 483 887 512 1121 14 118 -1 221 -54
355 -70 179 -87 429 -36 532 21 42 36 55 123 106 181 106 289 209 403 384 183
280 242 596 162 859 -11 38 -58 141 -104 229 -97 187 -115 241 -115 347 0 106
9 137 112 397 225 568 311 951 295 1311 -10 224 -49 382 -137 555 -89 176
-181 283 -409 479 -91 78 -205 184 -254 235 -257 271 -480 757 -543 1182 -24
166 -15 416 20 558 48 192 93 283 243 492 168 236 207 343 207 559 0 203 -38
326 -178 563 -145 247 -158 300 -211 877 -14 151 -27 287 -30 303 l-5 27
26200 0 26200 0 0 -1520 0 -1520 490 0 490 0 0 1768 0 1767 -26810 -3 -26810
-2 -62 21 c-189 65 -444 20 -756 -131 -243 -118 -345 -194 -485 -359 -191
-228 -788 -1048 -959 -1319 -168 -266 -226 -440 -252 -756 -17 -200 -36 -270
-118 -429 -55 -107 -120 -197 -237 -327 -393 -436 -701 -895 -839 -1251 -22
-58 -54 -161 -71 -230 -99 -396 -51 -710 159 -1053 115 -189 118 -239 22 -386
-53 -80 -265 -294 -427 -430 -206 -172 -238 -213 -271 -343 -32 -124 -1 -248
95 -383 60 -83 81 -149 88 -273 17 -309 -91 -464 -429 -612 -60 -26 -130 -63
-156 -81 -52 -38 -109 -123 -118 -177 -13 -83 -24 -75 -21 14 6 150 77 370
176 544 64 112 91 195 98 301 12 176 -42 380 -161 618 -84 169 -160 295 -367
617 -295 460 -405 702 -466 1025 -21 118 -24 506 -6 830 30 510 -44 839 -274
1233 -159 272 -365 506 -723 822 -350 309 -436 417 -503 630 -54 172 -58 325
-17 570 27 160 35 353 21 490 -55 512 -282 1056 -556 1332 -118 119 -206 165
-324 170 -52 2 -91 -2 -124 -14z m243 -455 c189 -224 362 -658 411 -1033 15
-118 6 -317 -22 -475 -29 -164 -31 -403 -5 -535 38 -192 93 -329 191 -476 84
-125 207 -254 440 -459 355 -312 513 -493 668 -762 179 -309 240 -591 217
-992 -6 -94 -15 -232 -20 -306 -37 -517 38 -902 261 -1343 78 -153 116 -218
306 -517 308 -486 423 -734 423 -910 0 -65 -3 -74 -76 -215 -89 -171 -123
-261 -169 -440 -55 -213 -56 -371 -4 -492 63 -148 213 -255 399 -285 36 -6 66
-12 67 -13 1 0 -16 -48 -38 -106 -23 -57 -56 -162 -74 -234 -106 -414 -97
-787 29 -1200 18 -60 57 -186 85 -280 160 -521 233 -1062 230 -1700 -1 -180 2
-260 10 -263 6 -2 11 -2 11 0 0 2 7 71 16 153 21 213 29 711 15 920 -25 359
-73 644 -172 1031 -32 127 -68 283 -78 345 -61 354 -52 769 24 1145 39 192 39
193 110 215 150 46 230 196 180 338 l-14 41 52 22 c218 94 432 260 516 401
107 182 151 423 122 676 -19 162 -57 268 -142 393 -22 31 -39 59 -39 61 0 3
55 49 123 103 157 127 439 407 507 504 99 143 147 266 157 406 10 144 -23 246
-153 470 -82 142 -110 212 -130 326 -57 333 121 764 539 1306 62 80 162 201
222 270 216 243 237 268 305 370 102 151 189 342 226 497 8 33 21 133 29 221
18 198 51 331 106 433 88 164 292 454 695 991 272 363 358 468 426 522 52 42
122 85 117 72 -2 -5 -43 -81 -91 -169 -328 -604 -534 -1229 -607 -1840 -37
-303 -40 -647 -11 -1195 54 -1027 -1 -1642 -212 -2375 -30 -104 -37 -116 -119
-225 -380 -502 -585 -1081 -640 -1810 -15 -204 -6 -788 16 -1015 37 -389 81
-689 210 -1445 176 -1031 211 -1304 222 -1745 18 -749 -131 -1238 -491 -1612
-193 -201 -418 -345 -731 -468 -66 -26 -129 -55 -141 -66 -11 -11 -130 -181
-265 -379 -134 -198 -246 -360 -249 -360 -3 0 -19 26 -34 58 -16 31 -66 124
-113 206 l-84 148 16 108 c59 408 226 700 594 1043 142 132 231 197 391 282
148 80 198 115 266 187 247 262 293 609 189 1422 -53 412 -257 1529 -405 2211
-97 451 -116 608 -106 870 20 527 183 1038 518 1625 58 101 263 413 351 533
39 54 42 63 42 121 0 54 -4 68 -29 100 -64 84 -186 88 -257 10 -50 -55 -229
-364 -353 -607 -320 -628 -470 -1162 -483 -1717 -8 -344 11 -494 123 -974 110
-471 273 -1308 348 -1791 75 -476 99 -709 99 -980 0 -354 -47 -514 -196 -665
-45 -46 -86 -73 -190 -126 -177 -90 -281 -156 -408 -258 -223 -179 -410 -376
-532 -561 -66 -100 -162 -287 -197 -387 l-24 -65 -100 140 c-232 323 -484 617
-800 932 -381 381 -773 707 -1254 1045 -153 107 -209 170 -286 320 -76 148
-112 269 -135 458 -10 79 -8 100 39 380 131 791 165 1174 165 1872 0 360 -4
492 -18 630 -78 775 -245 1403 -552 2075 -97 210 -253 516 -455 890 -494 913
-659 1348 -742 1950 -29 216 -32 702 -5 925 79 644 267 1307 584 2055 74 175
107 265 110 300 13 163 -200 237 -299 104 -20 -26 -129 -323 -239 -652 -211
-629 -349 -1261 -388 -1782 -14 -182 -15 -586 -2 -746 21 -250 82 -570 159
-824 119 -392 286 -753 681 -1475 434 -792 632 -1256 781 -1830 138 -536 203
-1218 171 -1815 -32 -610 -94 -1062 -237 -1735 -44 -207 -46 -219 -39 -325 6
-97 15 -166 41 -308 l7 -38 -99 59 c-55 32 -145 84 -200 115 -226 126 -392
372 -440 651 -13 70 -15 131 -11 261 6 192 20 283 107 715 78 389 99 538 107
755 14 421 -74 754 -280 1067 -101 154 -154 247 -235 418 -305 635 -509 1531
-562 2470 -13 213 -21 245 -73 282 -42 30 -131 36 -181 13 -48 -23 -86 -87
-86 -146 0 -54 58 -428 106 -684 198 -1058 504 -1926 860 -2442 227 -329 305
-717 239 -1183 -21 -147 -37 -224 -115 -555 -38 -159 -78 -337 -90 -395 -67
-337 -65 -623 6 -867 5 -20 -17 -11 -177 66 -172 83 -571 262 -631 283 -24 8
-28 16 -33 66 -19 163 -73 360 -132 477 -45 88 -128 209 -192 278 -79 84 -168
150 -301 222 -122 66 -135 77 -161 127 -37 72 -26 134 58 333 131 312 158 425
157 650 -1 172 -14 251 -59 370 -30 79 -46 109 -133 230 -78 109 -112 175
-145 282 -104 329 -115 668 -32 958 34 117 80 215 164 345 37 58 77 128 88
155 30 73 47 192 40 290 -9 133 -53 244 -239 609 -340 668 -372 734 -376 797
-8 107 30 175 215 390 137 160 210 262 273 381 133 253 165 443 142 853 -22
394 35 705 179 986 84 163 148 243 422 527 257 267 394 447 532 699 160 293
276 608 385 1048 38 154 73 290 76 303 l6 23 32 -24 c17 -13 56 -53 86 -89z
m7573 -650 c9 -35 24 -188 57 -559 45 -514 77 -631 264 -959 88 -156 106 -207
106 -304 -1 -91 -11 -114 -144 -301 -117 -165 -210 -341 -255 -480 -171 -532
-101 -1140 204 -1760 82 -166 180 -327 273 -449 75 -99 236 -259 404 -402 175
-151 240 -223 298 -336 86 -165 110 -375 71 -633 -38 -254 -98 -457 -242 -822
-135 -343 -161 -468 -140 -674 15 -145 48 -246 129 -399 135 -256 127 -234
126 -340 0 -114 -26 -199 -101 -323 -70 -117 -157 -201 -287 -278 -136 -80
-212 -158 -267 -273 -64 -134 -74 -187 -74 -381 1 -210 26 -361 86 -510 50
-125 51 -161 6 -297 -69 -206 -208 -483 -420 -837 -61 -101 -123 -214 -139
-252 -32 -77 -72 -221 -94 -341 -22 -118 -29 -381 -15 -508 32 -277 139 -601
241 -730 39 -49 121 -100 161 -100 27 0 30 -3 24 -22 -11 -37 -59 -91 -101
-115 -22 -12 -73 -27 -114 -33 -220 -31 -274 -55 -391 -170 -165 -163 -312
-437 -439 -820 -62 -185 -140 -460 -140 -492 0 -45 26 -5 70 107 82 211 150
365 222 509 225 451 401 643 623 676 100 15 193 45 247 79 85 54 138 155 138
265 0 47 3 52 47 91 41 36 47 47 53 95 4 30 3 96 -3 146 -19 163 15 220 188
324 250 149 364 258 449 428 15 29 31 52 35 50 4 -2 86 -43 182 -91 232 -117
318 -140 519 -140 170 0 282 25 422 91 208 98 318 234 326 404 5 101 -13 153
-94 275 -35 53 -64 103 -64 112 0 9 12 41 26 71 55 118 259 278 446 350 152
59 183 63 393 56 258 -9 389 15 565 104 100 50 145 85 278 213 153 148 224
186 355 194 139 9 268 -22 567 -134 396 -149 835 -353 1055 -492 113 -71 134
-91 93 -91 -35 0 -166 -36 -223 -61 -198 -87 -350 -261 -400 -457 -9 -35 -31
-147 -50 -250 -64 -347 -139 -574 -252 -759 -101 -164 -112 -185 -137 -260
-35 -104 -49 -204 -49 -348 1 -159 16 -236 90 -455 52 -154 55 -169 50 -233
-7 -78 -19 -102 -111 -221 -104 -133 -196 -281 -287 -462 -83 -165 -103 -218
-205 -547 -35 -114 -112 -238 -179 -289 -27 -21 -122 -74 -210 -118 -224 -111
-329 -182 -461 -314 -133 -134 -196 -217 -268 -356 -65 -126 -96 -223 -131
-406 -42 -216 -72 -282 -203 -445 -73 -90 -162 -175 -269 -256 -120 -92 -179
-127 -433 -258 -272 -141 -381 -206 -512 -307 -230 -178 -385 -355 -698 -798
-368 -520 -643 -850 -1080 -1294 -497 -505 -970 -895 -1497 -1235 -704 -453
-1466 -779 -2213 -946 -91 -20 -170 -38 -177 -40 -7 -2 -10 2 -7 9 3 7 21 18
42 25 131 46 441 180 637 275 1160 567 2057 1391 2772 2546 327 527 602 1136
759 1680 25 85 90 334 145 555 55 220 123 479 150 575 66 231 199 627 294 875
42 110 86 227 98 259 18 49 44 83 148 195 354 383 743 700 1119 914 63 36 240
122 393 191 433 196 651 309 986 509 285 170 731 473 731 497 0 20 -28 7 -184
-89 -250 -154 -459 -270 -736 -410 -317 -160 -474 -231 -827 -371 -300 -120
-584 -254 -728 -345 -218 -137 -442 -330 -610 -527 -122 -142 -118 -137 -109
-113 18 51 158 333 223 450 229 408 586 903 947 1315 139 159 570 593 699 705
167 144 278 216 625 404 238 130 361 241 603 544 167 208 222 265 317 326 175
113 365 127 610 45 81 -27 116 -35 153 -31 79 7 136 62 144 140 15 132 -70
192 -342 243 -136 25 -350 16 -470 -20 -167 -50 -326 -151 -444 -282 -29 -32
-118 -145 -196 -251 -236 -314 -301 -373 -600 -544 -302 -171 -408 -249 -645
-471 -537 -503 -1143 -1272 -1517 -1923 -168 -292 -280 -539 -476 -1050 -257
-670 -350 -964 -546 -1732 -124 -485 -184 -690 -269 -913 -273 -717 -701
-1438 -1197 -2015 -432 -503 -955 -949 -1483 -1264 -279 -167 -713 -379 -933
-456 l-37 -13 72 151 c40 84 88 188 107 231 28 66 42 85 78 110 479 332 966
800 1307 1256 367 490 647 1035 854 1660 128 384 183 642 256 1180 141 1056
247 1486 474 1939 166 332 358 591 664 896 289 289 479 448 882 740 355 258
648 494 951 768 250 225 397 367 416 400 10 20 17 53 17 87 0 97 -64 160 -165
160 -25 0 -58 -6 -73 -14 -15 -8 -105 -97 -201 -199 -349 -371 -719 -705
-1196 -1077 -278 -217 -414 -338 -691 -614 -462 -463 -709 -828 -907 -1346
-146 -380 -239 -829 -362 -1730 -59 -438 -113 -691 -212 -995 -345 -1058 -930
-1908 -1742 -2526 -57 -44 -105 -78 -107 -76 -2 2 10 45 26 97 304 968 392
2067 254 3170 -96 766 -299 1512 -611 2237 l-65 153 209 331 c114 183 235 375
268 428 44 69 70 101 95 113 19 10 87 42 150 72 391 184 697 448 902 779 151
241 251 553 293 912 21 168 23 571 6 780 -31 376 -92 782 -231 1545 -201 1106
-254 1546 -254 2110 1 388 29 651 104 965 100 419 296 824 551 1139 67 83 75
98 106 200 94 307 177 680 213 956 61 470 76 838 60 1440 -13 465 -9 936 10
1090 80 658 300 1273 681 1906 69 114 79 136 79 178 0 52 -20 104 -50 131 -11
10 -43 25 -71 35 l-52 16 79 32 c96 38 184 63 250 71 7 0 14 -9 17 -21z"/>
<path d="M10463 34803 c-10 -26 15 -465 37 -633 54 -415 152 -799 300 -1170
346 -868 797 -1595 1388 -2237 52 -57 98 -103 103 -103 23 0 0 36 -107 170
-458 572 -833 1212 -1095 1868 -123 306 -319 943 -438 1419 -34 135 -161 687
-161 699 0 12 -22 1 -27 -13z"/>
<path d="M18267 29123 c-3 -4 -13 -98 -22 -208 -40 -499 -109 -1114 -166
-1480 -111 -718 -348 -1444 -703 -2154 -54 -107 -82 -172 -75 -177 15 -9 15
-8 118 166 105 178 282 523 369 720 271 615 483 1386 544 1980 16 162 16 668
0 830 -24 235 -47 352 -65 323z"/>
<path d="M25680 28930 l0 -4760 770 0 770 0 0 1980 0 1980 1075 0 1075 0 0
765 0 765 -1075 0 -1075 0 0 1260 0 1260 1715 0 1715 0 0 755 0 755 -2485 0
-2485 0 0 -4760z"/>
<path d="M66720 28925 l0 -4765 755 0 755 0 0 4765 0 4765 -755 0 -755 0 0
-4765z"/>
<path d="M41080 31743 c-439 -26 -962 -231 -1315 -516 -104 -84 -242 -229
-325 -340 l-65 -88 -3 455 -2 456 -740 0 -740 0 0 -3775 0 -3775 740 0 740 0
0 2158 c0 2346 -2 2234 56 2452 149 563 619 1139 1126 1380 182 86 340 130
548 150 63 7 116 13 117 13 0 1 76 317 168 702 91 385 168 708 171 718 5 16
-9 17 -208 15 -117 -1 -238 -3 -268 -5z"/>
<path d="M61930 31743 c-371 -22 -833 -180 -1155 -396 -181 -122 -386 -318
-502 -482 l-63 -88 0 467 0 466 -735 0 -735 0 0 -3775 0 -3775 735 0 735 0 0
2078 c0 1244 4 2127 10 2202 37 476 261 931 650 1321 183 184 312 279 508 378
181 91 354 140 572 161 63 7 116 13 116 13 5 7 334 1406 334 1420 0 16 -16 17
-207 15 -115 -1 -233 -3 -263 -5z"/>
<path d="M54125 31709 c-376 -36 -739 -168 -1040 -377 -438 -304 -726 -693
-836 -1128 -30 -118 -58 -370 -43 -384 5 -4 288 -114 629 -243 l620 -236 6 27
c4 15 7 55 8 88 0 34 8 101 16 150 53 301 178 498 406 636 108 66 302 128 398
128 78 0 71 -65 71 681 l0 669 -72 -1 c-40 -1 -113 -6 -163 -10z"/>
<path d="M55030 31052 l0 -671 43 -5 c23 -3 72 -8 109 -11 307 -26 552 -208
667 -496 57 -144 65 -192 65 -439 1 -215 0 -227 -22 -267 -55 -103 -217 -224
-456 -341 -275 -135 -550 -236 -1181 -433 -561 -175 -1152 -372 -1310 -436
-364 -149 -648 -462 -773 -853 -63 -198 -74 -301 -79 -757 -4 -271 -1 -456 6
-543 33 -370 179 -671 460 -950 423 -420 1000 -661 1644 -687 l157 -6 -2 679
-3 679 -120 7 c-495 26 -783 199 -871 523 -12 42 -18 119 -21 260 -8 303 21
426 122 534 83 88 212 130 1449 471 411 113 767 235 934 319 34 17 64 31 67
31 4 0 4 -334 2 -742 -3 -665 -5 -751 -21 -818 -62 -265 -219 -438 -477 -525
-90 -31 -215 -55 -284 -55 -29 0 -60 -3 -69 -6 -14 -6 -16 -75 -16 -680 l0
-674 68 0 c165 0 430 36 623 85 251 64 486 173 680 316 37 27 69 49 72 49 3 0
34 -25 69 -56 274 -241 681 -393 1056 -394 l82 0 0 685 0 685 -24 0 c-43 0
-152 39 -194 70 -60 43 -108 121 -132 214 -20 78 -20 105 -20 1982 0 1226 -4
1939 -10 2005 -45 455 -235 849 -586 1218 -413 434 -930 663 -1571 697 l-133
7 0 -671z"/>
<path d="M33640 31700 c-639 -35 -1164 -275 -1605 -731 -331 -343 -523 -685
-591 -1054 -18 -95 -19 -192 -19 -1970 0 -1783 1 -1875 19 -1970 43 -233 163
-514 319 -748 247 -370 552 -649 901 -824 326 -163 608 -232 1059 -258 l107
-6 0 709 0 709 -102 6 c-137 8 -251 37 -377 97 -200 96 -330 216 -406 375 -87
181 -80 16 -80 1890 0 1879 -8 1697 84 1890 100 211 252 345 476 422 86 29
228 53 318 53 l67 0 0 710 c0 670 -1 710 -17 708 -10 0 -79 -4 -153 -8z"/>
<path d="M34400 31000 l0 -710 64 0 c82 0 213 -23 302 -54 233 -79 391 -208
478 -389 87 -181 81 -36 81 -1907 0 -1576 -1 -1658 -18 -1720 -71 -250 -195
-430 -369 -536 -116 -71 -309 -124 -449 -124 l-69 0 0 -710 0 -709 88 5 c352
21 658 92 926 218 604 282 1114 884 1261 1488 46 189 46 217 43 2153 l-4 1830
-22 100 c-51 221 -131 416 -261 629 -278 459 -655 792 -1098 970 -220 88 -491
149 -719 161 -60 3 -137 8 -171 11 l-63 5 0 -711z"/>
<path d="M41902 31698 c2 -7 542 -1706 1199 -3776 l1194 -3762 415 2 415 3
228 715 c125 393 228 724 228 735 1 15 -1807 5381 -2016 5988 l-37 107 -815 0
c-648 0 -814 -3 -811 -12z"/>
<path d="M45453 30310 l-451 -1399 374 -1088 c206 -598 374 -1088 374 -1090 0
-2 43 -3 95 -3 l94 0 44 138 c526 1652 721 2262 726 2262 4 0 362 -1118 796
-2485 l790 -2485 415 2 415 3 228 715 c125 393 228 724 228 735 1 15 -1807
5381 -2016 5988 l-37 107 -813 0 -812 0 -450 -1400z"/>
<path d="M49462 30317 c-243 -766 -442 -1399 -442 -1405 0 -7 138 -421 306
-920 169 -499 333 -987 366 -1084 l60 -178 93 0 94 0 70 218 c345 1074 1512
4718 1517 4737 l6 25 -814 0 -815 0 -441 -1393z"/>
<path d="M65031 31679 c-210 -22 -448 -87 -651 -178 -470 -209 -925 -656
-1154 -1132 -75 -156 -117 -279 -149 -433 l-22 -111 0 -1895 0 -1895 29 -120
c39 -164 83 -284 171 -461 127 -258 300 -500 495 -694 334 -334 744 -527 1238
-585 95 -11 245 -15 594 -15 l468 0 0 704 0 705 -452 3 c-444 4 -454 4 -523
27 -160 53 -327 160 -441 283 -71 77 -115 149 -141 233 -17 57 -18 140 -18
1795 0 1675 1 1737 19 1790 95 277 292 470 553 542 73 20 106 22 541 26 l462
4 0 709 0 709 -467 -1 c-258 -1 -506 -6 -552 -10z"/>
<path d="M25700 18680 l0 -4770 765 0 765 0 0 4770 0 4770 -765 0 -765 0 0
-4770z"/>
<path d="M27920 22701 l0 -751 498 0 c538 0 588 -4 756 -57 259 -81 460 -251
579 -488 111 -223 172 -585 138 -826 -60 -422 -267 -695 -611 -807 -168 -55
-164 -55 -782 -59 l-578 -4 0 -751 0 -750 683 5 c715 5 816 10 1103 57 472 76
787 219 1058 480 176 170 287 325 397 555 188 392 289 933 289 1535 -1 1070
-336 1824 -990 2231 -258 160 -614 283 -965 334 -238 34 -310 37 -932 42
l-643 5 0 -751z"/>
<path d="M12696 23095 c-3 -10 34 -74 98 -168 611 -898 1018 -1957 1130 -2937
42 -361 46 -795 11 -1120 -107 -1007 -539 -2088 -1159 -2900 -170 -222 -248
-309 -837 -930 -594 -627 -1107 -1179 -1291 -1391 -97 -111 -71 -133 49 -43
496 373 1312 1077 1858 1605 318 307 489 505 672 779 467 699 826 1727 929
2660 21 198 30 682 15 895 -56 796 -267 1547 -650 2315 -199 398 -403 730
-662 1075 -133 178 -149 194 -163 160z"/>
<path d="M43830 21518 c-637 -58 -1190 -357 -1593 -858 -224 -278 -372 -572
-439 -870 l-23 -105 0 -1920 0 -1920 23 -103 c118 -527 516 -1091 992 -1405
318 -210 693 -325 1148 -353 l112 -7 0 685 0 685 -110 12 c-393 42 -714 278
-775 568 -21 98 -22 3541 -1 3618 15 59 74 177 124 253 144 219 383 351 665
369 l97 6 0 679 0 678 -62 -1 c-35 -1 -106 -6 -158 -11z"/>
<path d="M44620 20853 l0 -680 88 -6 c231 -17 508 -152 660 -323 61 -68 125
-189 141 -266 8 -38 11 -574 9 -1843 l-3 -1790 -32 -80 c-126 -312 -400 -500
-760 -522 l-103 -6 0 -680 0 -679 68 6 c225 23 448 89 820 243 10 4 12 -79 10
-438 l-3 -444 -47 -98 c-58 -120 -94 -174 -172 -256 -123 -128 -277 -209 -496
-258 -68 -15 -208 -17 -1452 -20 l-1377 -4 -10 -37 c-5 -20 -80 -314 -166
-652 -86 -338 -158 -623 -161 -632 -5 -17 75 -18 1579 -18 1029 0 1621 4 1688
10 435 44 846 218 1179 498 401 336 710 808 823 1252 l22 85 2 4158 3 4157
-705 0 -705 0 0 -124 0 -124 -122 62 c-212 107 -432 167 -665 182 l-113 7 0
-680z"/>
<path d="M59390 21513 c-550 -31 -1093 -256 -1522 -631 -283 -247 -490 -584
-582 -947 -53 -211 -60 -280 -61 -585 0 -313 12 -425 65 -636 137 -535 522
-968 1115 -1254 177 -85 442 -166 929 -285 519 -126 999 -271 1241 -374 331
-142 559 -325 626 -501 44 -114 33 -288 -26 -446 -96 -256 -339 -473 -641
-573 -107 -35 -253 -61 -346 -61 l-68 0 0 -685 0 -685 103 0 c295 0 656 71
947 186 203 81 445 217 628 354 107 80 293 259 375 360 233 289 382 646 444
1065 25 170 25 617 0 760 -66 375 -194 662 -409 921 -151 181 -323 314 -553
429 -183 91 -295 130 -530 184 -945 221 -1666 440 -1989 606 -271 139 -466
315 -527 476 -79 208 -4 502 178 699 146 158 322 236 591 262 l122 12 0 678 0
678 -27 -2 c-16 -1 -53 -3 -83 -5z"/>
<path d="M60100 20841 l0 -681 24 0 c55 0 207 -33 320 -70 434 -141 656 -392
698 -786 10 -94 15 -113 28 -110 8 2 312 55 675 117 363 61 661 113 663 114 9
7 -22 276 -44 374 -111 496 -480 1003 -964 1324 -127 84 -367 203 -509 252
-203 69 -439 118 -636 129 -55 4 -135 9 -177 12 l-78 5 0 -680z"/>
<path d="M64884 21509 c-577 -42 -1183 -327 -1585 -746 -371 -388 -546 -885
-526 -1493 18 -546 142 -903 434 -1251 250 -298 661 -558 1083 -684 102 -31
329 -92 505 -136 679 -170 1054 -281 1304 -385 333 -140 551 -304 637 -479
l39 -79 0 -131 c0 -152 -19 -227 -90 -361 -59 -114 -117 -187 -208 -264 -193
-165 -440 -263 -694 -277 l-113 -6 0 -685 0 -685 168 6 c379 14 736 103 1067
267 601 297 978 705 1165 1261 144 429 165 978 54 1405 -140 540 -502 967
-1003 1184 -103 45 -310 112 -396 130 -132 26 -794 193 -1025 259 -627 178
-960 307 -1205 469 -181 120 -303 262 -346 404 -18 58 -21 86 -16 167 7 121
26 193 81 306 131 266 369 415 713 447 l123 12 0 678 0 678 -27 -1 c-16 -1
-78 -5 -139 -10z"/>
<path d="M65660 20840 l0 -680 24 0 c96 0 346 -71 493 -140 316 -148 499 -408
520 -738 l6 -93 26 6 c49 10 1306 225 1319 225 27 0 2 262 -43 435 -162 622
-710 1221 -1353 1479 -237 95 -505 156 -752 171 -52 3 -128 8 -167 11 l-73 5
0 -681z"/>
<path d="M35140 21485 c-378 -53 -802 -225 -1103 -448 -116 -86 -303 -272
-389 -387 l-73 -99 -3 455 -2 454 -740 0 -740 0 0 -3775 0 -3775 740 0 740 0
3 2198 3 2197 21 98 c69 313 195 581 402 857 100 133 281 324 396 417 285 230
604 360 927 380 54 3 98 7 98 9 0 2 263 1110 335 1412 l5 22 -262 -1 c-157 -1
-301 -6 -358 -14z"/>
<path d="M50640 21493 c-200 -21 -427 -80 -646 -168 -420 -169 -739 -419 -976
-765 -16 -24 -17 -1 -17 438 l-1 462 -735 0 -735 0 0 -3775 0 -3775 735 0 735
0 0 2083 c0 1219 4 2133 10 2204 26 335 138 642 346 953 364 544 880 877 1404
907 l95 6 108 456 c60 251 137 574 171 719 l63 262 -261 -2 c-144 0 -277 -3
-296 -5z"/>
<path d="M38075 21449 c-580 -55 -1085 -300 -1495 -725 -320 -332 -511 -667
-586 -1029 -18 -86 -19 -169 -19 -1995 0 -1813 1 -1909 18 -1990 115 -526 501
-1084 976 -1409 360 -246 767 -374 1263 -397 l138 -7 0 705 0 704 -114 12
c-375 39 -675 240 -791 529 -58 143 -56 69 -53 1868 l3 1650 34 97 c100 290
305 480 596 552 69 18 210 36 272 36 l43 0 0 705 0 705 -97 -1 c-54 -1 -138
-6 -188 -10z"/>
<path d="M38950 20757 l0 -707 43 0 c73 0 229 -28 312 -56 243 -81 402 -210
490 -395 76 -162 70 1 73 -1868 l2 -1675 -21 -85 c-41 -168 -145 -351 -253
-448 -137 -122 -293 -183 -518 -205 l-118 -12 0 -704 0 -705 123 7 c598 34
1099 247 1521 646 291 276 541 680 626 1010 56 218 53 99 57 2020 4 1840 2
1967 -36 2141 -57 257 -202 553 -403 824 -99 133 -349 387 -471 477 -364 269
-785 412 -1279 434 l-148 7 0 -706z"/>
<path d="M53575 21453 c-393 -33 -738 -143 -1060 -336 -312 -187 -578 -443
-786 -755 -141 -213 -228 -406 -287 -642 l-27 -105 -3 -1890 c-2 -1860 -2
-1892 18 -1996 29 -155 72 -275 160 -454 294 -599 785 -1040 1375 -1234 225
-74 427 -109 723 -126 l112 -7 0 675 0 674 -97 6 c-323 21 -658 222 -774 465
-57 118 -59 141 -59 785 l0 587 1980 0 1980 0 0 1208 c0 760 -4 1240 -10 1297
-58 499 -337 970 -780 1314 -431 335 -903 512 -1432 538 l-138 6 0 -680 0
-680 98 -6 c101 -7 244 -39 354 -80 270 -102 435 -268 500 -504 20 -73 22
-106 26 -540 l4 -463 -1291 0 -1291 0 0 423 c0 462 3 493 60 612 155 324 421
515 758 541 l82 7 0 683 0 684 -77 -2 c-43 -1 -96 -3 -118 -5z"/>
<path d="M57835 16036 c-335 -62 -628 -116 -649 -120 l-39 -7 6 -117 c37 -683
456 -1329 1077 -1660 326 -174 781 -282 1190 -282 l120 0 0 690 0 690 -41 0
c-59 0 -225 36 -303 65 -237 89 -456 249 -561 409 -73 113 -125 276 -125 396
l0 50 -32 -1 c-18 -1 -307 -52 -643 -113z"/>
<path d="M63385 16036 c-335 -62 -627 -116 -649 -120 l-38 -7 7 -102 c23 -367
135 -699 335 -997 405 -604 1040 -929 1868 -957 l182 -6 0 689 0 690 -98 11
c-272 33 -575 193 -750 397 -100 117 -181 328 -182 474 0 41 -1 42 -32 41 -18
-1 -307 -52 -643 -113z"/>
<path d="M55595 16038 c-48 -127 -136 -286 -204 -370 -190 -236 -437 -359
-788 -390 l-133 -12 0 -679 0 -678 113 6 c523 29 973 180 1361 456 409 292
697 678 851 1140 25 77 45 147 43 156 -2 10 -190 82 -598 229 -327 118 -600
214 -606 214 -6 0 -23 -33 -39 -72z"/>
</g>
</svg>
